<svg xmlns="http://www.w3.org/2000/svg" width="1024" height="539" viewBox="0 0 1024 539" version="1.1">
	<path d="M 144.500 1.851 C 139.857 4.039, 136.576 7.331, 135.067 11.315 C 134.322 13.280, 134 86.282, 134 253.164 C 134 471.850, 134.138 492.490, 135.627 495.626 C 136.522 497.512, 138.322 499.894, 139.627 500.921 C 140.932 501.948, 142 503.061, 142 503.394 C 142 503.727, 135.250 504, 127 504 L 112 504 112 509.500 L 112 515 89.500 515 L 67 515 67 509.585 L 67 504.171 60.424 503.835 C 50.695 503.339, 49.832 503.880, 50.197 510.237 L 50.500 515.500 58.235 518.206 C 81.710 526.420, 95.304 526.896, 352.500 528.506 C 566.382 529.844, 866.283 528.018, 925.521 525.015 C 945.043 524.026, 956.610 521.929, 968.500 517.226 C 972.920 515.478, 973.538 514.870, 973.824 511.986 C 974.002 510.191, 973.881 507.661, 973.555 506.362 C 972.970 504.032, 972.788 504, 960.033 504 L 947.105 504 946.802 509.250 L 946.500 514.500 929.250 514.774 L 912 515.047 912 509.524 L 912 504 897 504 C 888.750 504, 882 503.658, 882 503.241 C 882 502.823, 882.889 501.926, 883.977 501.247 C 885.064 500.568, 886.864 498.228, 887.977 496.046 C 889.991 492.097, 890 491.031, 890 253.008 C 890 -4.964, 890.317 10.316, 884.865 5.298 C 878.669 -0.406, 890.799 -0.070, 697.215 0.103 C 599.472 0.190, 515.450 0.614, 510.500 1.047 C 496.468 2.271, 480.560 2.468, 478.956 1.436 C 478.071 0.867, 413.033 0.395, 313 0.233 C 153.626 -0.026, 148.375 0.025, 144.500 1.851 M 408.250 36.730 C 406.070 37.492, 406.875 40, 409.300 40 C 411.731 40, 414.021 38.307, 413.968 36.550 C 413.951 35.972, 413.316 36.319, 412.557 37.320 C 411.407 38.837, 411.038 38.903, 410.339 37.716 C 409.877 36.934, 408.938 36.490, 408.250 36.730 M 415 38.059 C 415 39.191, 415.430 39.852, 415.956 39.527 C 416.482 39.202, 416.659 38.275, 416.349 37.468 C 415.556 35.401, 415 35.644, 415 38.059 M 419.667 36.667 C 418.346 37.987, 419.040 39.577, 421.002 39.725 C 422.685 39.852, 422.839 39.567, 421.967 37.938 C 420.822 35.799, 420.637 35.697, 419.667 36.667 M 424 37.941 C 424 40.356, 424.556 40.599, 425.349 38.532 C 425.659 37.725, 425.482 36.798, 424.956 36.473 C 424.430 36.148, 424 36.809, 424 37.941 M 429.727 38.064 C 430.002 39.116, 430.626 39.731, 431.114 39.430 C 432.430 38.616, 432.188 37.286, 430.613 36.682 C 429.642 36.309, 429.376 36.724, 429.727 38.064 M 435 38 C 435 39.100, 435.354 40, 435.786 40 C 436.218 40, 436.571 39.100, 436.571 38 C 436.571 36.900, 436.218 36, 435.786 36 C 435.354 36, 435 36.900, 435 38 M 438.725 38.056 C 439.168 39.749, 441.604 39.981, 443.918 38.550 C 444.419 38.241, 445.057 38.553, 445.336 39.244 C 445.614 39.935, 445.878 39.563, 445.921 38.417 C 445.967 37.196, 445.379 36.333, 444.500 36.333 C 443.675 36.333, 442.993 36.821, 442.985 37.417 C 442.975 38.119, 442.711 38.148, 442.235 37.500 C 440.904 35.688, 438.217 36.114, 438.725 38.056 M 451.192 37.935 C 451.856 39, 452.741 39.660, 453.156 39.403 C 454.339 38.673, 452.947 36, 451.385 36 C 450.249 36, 450.212 36.367, 451.192 37.935 M 456 38 C 456 40.033, 457.870 40.319, 459.269 38.500 C 459.744 37.882, 460.604 38.242, 461.519 39.441 C 462.670 40.949, 463 41.041, 463 39.852 C 463 38.439, 459.171 36, 456.953 36 C 456.429 36, 456 36.900, 456 38 M 467.337 37.435 C 467.640 38.225, 467.350 39.089, 466.694 39.356 C 466.037 39.624, 466.512 39.878, 467.750 39.921 C 468.988 39.964, 470 39.812, 470 39.582 C 470 38.209, 468.635 36, 467.786 36 C 467.236 36, 467.034 36.646, 467.337 37.435 M 471 38.059 C 471 39.199, 471.454 39.838, 472.016 39.490 C 472.575 39.144, 472.797 38.481, 472.510 38.016 C 472.223 37.551, 472.553 36.943, 473.244 36.664 C 474.002 36.359, 473.806 36.127, 472.750 36.079 C 471.624 36.028, 471 36.735, 471 38.059 M 475 38.070 C 475 39.203, 475.454 39.837, 476.016 39.490 C 476.575 39.144, 476.774 38.443, 476.457 37.931 C 476.141 37.419, 476.373 37, 476.972 37 C 477.572 37, 478.322 37.675, 478.638 38.500 C 479.451 40.618, 480.910 40.373, 480.345 38.213 C 480.080 37.198, 478.825 36.339, 477.439 36.224 C 475.582 36.071, 475 36.511, 475 38.070 M 482 36.592 C 482 36.682, 482.622 37.272, 483.383 37.903 C 484.437 38.778, 484.886 38.739, 485.270 37.740 C 485.575 36.944, 485.032 36.429, 483.886 36.429 C 482.849 36.429, 482 36.502, 482 36.592 M 426.625 37.798 C 426.354 38.237, 426.545 39.249, 427.051 40.048 C 427.768 41.182, 427.973 41.007, 427.985 39.250 C 428 36.937, 427.492 36.394, 426.625 37.798 M 447 37.902 C 447 38.940, 448.902 40.443, 449.466 39.850 C 449.649 39.658, 449.169 38.920, 448.399 38.211 C 447.630 37.501, 447 37.362, 447 37.902 M 174.225 81.250 L 174.500 97.500 190.500 97.500 L 206.500 97.500 206.775 81.250 L 207.050 65 190.500 65 L 173.950 65 174.225 81.250 M 741 81.500 L 741 95 794 95 L 847 95 847 81.500 L 847 68 794 68 L 741 68 741 81.500 M 742 81.500 L 742 94 794 94 L 846 94 846 81.500 L 846 69 794 69 L 742 69 742 81.500 M 189.200 73.200 C 187.416 74.984, 187.715 75.474, 190.752 75.743 C 192.264 75.877, 194.625 76.102, 196 76.243 C 197.928 76.441, 198.573 75.985, 198.820 74.250 C 199.109 72.211, 198.729 72, 194.770 72 C 192.366 72, 189.860 72.540, 189.200 73.200 M 219.667 75.667 C 219.300 76.033, 219 78.508, 219 81.167 C 219 85.333, 219.276 86, 221 86 C 222.100 86, 223 85.460, 223 84.800 C 223 83.867, 223.267 83.867, 224.200 84.800 C 224.860 85.460, 226.460 86, 227.757 86 C 230.095 86, 230.100 85.977, 228.365 83.041 C 226.722 80.259, 226.719 79.968, 228.308 78.212 C 229.239 77.184, 230 76.040, 230 75.671 C 230 74.521, 226.467 74.936, 225.075 76.250 C 224.015 77.250, 223.658 77.250, 223.292 76.250 C 222.799 74.907, 220.755 74.578, 219.667 75.667 M 241.223 76.557 C 236.794 79.658, 239.606 87, 245.223 87 C 247.781 87, 251 83.410, 251 80.557 C 251 78.014, 247.745 75, 245 75 C 244.145 75, 242.445 75.701, 241.223 76.557 M 261.667 75.667 C 261.300 76.033, 261 78.508, 261 81.167 C 261 85.333, 261.276 86, 263 86 C 264.100 86, 265 85.460, 265 84.800 C 265 83.867, 265.267 83.867, 266.200 84.800 C 266.860 85.460, 268.210 86, 269.200 86 C 270.715 86, 271 85.130, 271 80.500 C 271 76.278, 270.652 75, 269.500 75 C 268.675 75, 268 75.675, 268 76.500 C 268 77.325, 267.598 78, 267.107 78 C 266.616 78, 265.955 77.325, 265.638 76.500 C 265.045 74.953, 262.842 74.491, 261.667 75.667 M 305.338 75.999 C 301.098 77.708, 301.512 83.598, 306.042 86.022 C 311.577 88.985, 316.975 80.197, 311.834 76.596 C 309.291 74.815, 308.461 74.739, 305.338 75.999 M 282 81 L 282 86 285.800 86 C 290.256 86, 292 84.593, 292 81 C 292 77.407, 290.256 76, 285.800 76 L 282 76 282 81 M 324 80.531 C 324 85.162, 326.293 87.762, 327.976 85.039 C 328.525 84.151, 328.949 84.108, 329.434 84.893 C 329.810 85.502, 331.007 86, 332.094 86 C 333.781 86, 333.909 85.698, 332.966 83.936 C 332.146 82.404, 332.168 81.502, 333.053 80.436 C 334.941 78.161, 332.419 76, 327.878 76 L 324 76 324 80.531 M 409.695 77.639 C 408.666 78.668, 408.852 84, 409.917 84 C 410.421 84, 411.062 83.438, 411.341 82.750 C 411.689 81.892, 412.107 81.832, 412.674 82.559 C 413.156 83.177, 418.294 83.688, 425 83.785 C 431.695 83.883, 435.930 83.595, 435.137 83.097 C 433.986 82.375, 433.986 82.157, 435.137 81.697 C 436.255 81.250, 436.230 80.961, 435 80.091 C 433.983 79.372, 433.903 79.026, 434.750 79.015 C 435.438 79.007, 436 78.550, 436 78.001 C 436 76.727, 428.750 77.166, 427.750 78.500 C 427.277 79.130, 426.659 78.969, 426.076 78.064 C 425.363 76.956, 424.833 76.894, 423.752 77.791 C 422.698 78.666, 422.069 78.669, 421.203 77.803 C 420.338 76.938, 419.430 76.938, 417.527 77.806 C 415.571 78.697, 414.993 78.679, 414.968 77.729 C 414.950 77.026, 414.345 77.280, 413.557 78.320 C 412.317 79.956, 412.087 79.978, 411.283 78.542 C 410.792 77.663, 410.077 77.257, 409.695 77.639 M 517.314 78.624 C 516.925 79.638, 517.390 80.639, 518.551 81.289 C 520.349 82.295, 520.346 82.354, 518.456 83.050 C 517.192 83.516, 518.242 83.782, 521.424 83.802 C 524.725 83.823, 525.879 83.536, 524.924 82.932 C 523.747 82.187, 523.790 82.028, 525.167 82.015 C 526.083 82.007, 527.060 82.563, 527.338 83.250 C 527.639 83.997, 527.874 83.795, 527.921 82.750 C 527.964 81.787, 528.288 81, 528.640 81 C 528.992 81, 529.883 81.787, 530.621 82.750 C 531.793 84.280, 532.088 84.311, 532.966 83 C 533.518 82.175, 533.976 81.993, 533.985 82.596 C 533.994 83.242, 536.356 83.756, 539.750 83.850 C 543.842 83.963, 545.068 83.723, 544 83.019 C 542.818 82.240, 543.070 82.027, 545.191 82.015 C 546.671 82.007, 548.144 81.577, 548.463 81.060 C 548.818 80.485, 543.350 80.193, 534.427 80.310 C 526.387 80.414, 519.600 80.162, 519.345 79.750 C 519.091 79.338, 519.385 79, 520 79 C 520.615 79, 520.840 78.550, 520.500 78 C 519.569 76.493, 518.015 76.798, 517.314 78.624 M 572.040 78.452 C 571.377 79.251, 571.127 80.826, 571.485 81.952 C 572.011 83.610, 572.978 84, 576.567 84 C 580.333 84, 581 83.699, 581 82 C 581 79.628, 579.443 79.414, 577.357 81.500 C 575.239 83.618, 573 83.361, 573 81 C 573 79.648, 573.667 79, 575.059 79 C 576.191 79, 576.840 78.550, 576.500 78 C 575.605 76.553, 573.433 76.773, 572.040 78.452 M 625.040 78.452 C 624.377 79.251, 623.990 80.713, 624.181 81.702 C 624.671 84.255, 636.961 84.662, 637.070 82.129 C 637.124 80.874, 637.338 80.959, 638 82.500 C 638.829 84.430, 638.862 84.423, 638.930 82.313 C 638.992 80.388, 638.492 80.132, 634.772 80.184 C 632.173 80.220, 630.109 80.836, 629.416 81.784 C 628.766 82.673, 627.594 83.058, 626.645 82.694 C 624.385 81.827, 624.578 79.923, 626.989 79.293 C 628.083 79.007, 628.731 78.374, 628.430 77.886 C 627.632 76.595, 626.412 76.799, 625.040 78.452 M 755 78.738 C 755 81.506, 758.695 85, 761.622 85 C 764.812 85, 764.302 82.779, 760.929 81.983 C 759.396 81.621, 758.505 80.699, 758.503 79.472 C 758.501 78.405, 757.712 77.380, 756.750 77.193 C 755.582 76.966, 755 77.480, 755 78.738 M 458.975 80.565 C 458.439 81.976, 458 83.213, 458 83.315 C 458.001 83.417, 463.401 83.591, 470 83.703 L 482 83.905 482 81.453 C 482 78.119, 479.063 78.495, 477.729 82 C 477.248 83.264, 477.145 83.246, 477.079 81.883 C 477.017 80.612, 475.889 80.267, 471.794 80.267 C 468.805 80.267, 466.428 79.784, 466.211 79.133 C 465.551 77.154, 464.003 77.912, 463.932 80.250 L 463.865 82.500 462.780 80.250 C 461.360 77.307, 460.177 77.405, 458.975 80.565 M 485.370 80.250 C 485.701 81.487, 485.979 82.869, 485.986 83.320 C 485.994 83.770, 487.012 83.995, 488.250 83.820 C 489.861 83.591, 490.590 82.719, 490.816 80.750 C 490.990 79.237, 490.653 78, 490.066 78 C 489.480 78, 489 79.125, 489 80.500 C 489 81.875, 488.550 83, 488 83 C 487.450 83, 487 81.875, 487 80.500 C 487 79.125, 486.498 78, 485.883 78 C 485.213 78, 485.008 78.900, 485.370 80.250 M 657 79 C 657 79.550, 657.450 80, 658 80 C 658.550 80, 659 79.550, 659 79 C 659 78.450, 658.550 78, 658 78 C 657.450 78, 657 78.450, 657 79 M 769.515 78.818 C 769.232 79.102, 769 80.644, 769 82.246 C 769 85.023, 769.152 85.123, 772.250 84.392 C 774.038 83.971, 778.108 83.694, 781.296 83.777 C 786.393 83.910, 787.209 83.662, 788.067 81.714 C 788.962 79.684, 789.010 79.732, 788.652 82.290 C 788.407 84.043, 788.678 84.941, 789.381 84.706 C 789.996 84.501, 790.500 83.032, 790.500 81.442 C 790.500 78.869, 790.122 78.521, 787.061 78.273 C 785.116 78.115, 783.270 78.538, 782.811 79.247 C 782.176 80.228, 781.799 80.188, 781.076 79.064 C 780.336 77.913, 779.857 77.873, 778.665 78.863 C 777.736 79.634, 776.950 79.729, 776.572 79.116 C 775.953 78.115, 770.450 77.883, 769.515 78.818 M 793.500 79 C 793.160 79.550, 793.449 80, 794.141 80 C 795.120 80, 795.133 80.267, 794.200 81.200 C 792.325 83.075, 792.775 84, 795.559 84 C 797.239 84, 797.873 83.603, 797.405 82.845 C 796.912 82.048, 797.125 81.971, 798.095 82.595 C 798.868 83.093, 807.063 83.563, 816.306 83.640 L 833.112 83.780 832.806 81.140 C 832.510 78.589, 832.264 78.493, 825.500 78.305 C 820.034 78.153, 818.226 78.469, 817.250 79.747 C 816.098 81.254, 816 81.250, 816 79.691 C 816 78.667, 815.212 78, 814 78 C 812.889 78, 812 78.667, 812 79.500 C 812 81.534, 810.014 81.395, 808.421 79.250 C 807.294 77.732, 806.831 77.678, 804.927 78.842 C 803.155 79.926, 802.580 79.938, 801.942 78.906 C 801.314 77.890, 800.848 77.881, 799.665 78.863 C 798.658 79.699, 797.969 79.759, 797.530 79.049 C 796.708 77.718, 794.310 77.689, 793.500 79 M 185.500 79.960 C 183.642 80.722, 183.699 80.858, 186.315 81.890 C 187.863 82.500, 189.747 83, 190.500 83 C 191.253 83, 193.137 82.500, 194.685 81.890 C 197.301 80.858, 197.358 80.722, 195.500 79.960 C 194.400 79.509, 192.150 79.141, 190.500 79.141 C 188.850 79.141, 186.600 79.509, 185.500 79.960 M 243.446 80.087 C 243.077 80.685, 243.294 81.694, 243.929 82.329 C 244.801 83.201, 245.301 83.131, 245.976 82.039 C 246.929 80.497, 246.448 79, 245 79 C 244.515 79, 243.816 79.489, 243.446 80.087 M 286 81 C 286 82.100, 286.402 83, 286.893 83 C 288.017 83, 289.066 80.399, 288.264 79.598 C 287.061 78.394, 286 79.051, 286 81 M 306.500 80 C 305.663 81.354, 306.792 83, 308.559 83 C 309.352 83, 310 82.100, 310 81 C 310 78.930, 307.587 78.240, 306.500 80 M 418.639 79.694 C 417.513 80.820, 417.954 82, 419.500 82 C 420.325 82, 421 81.577, 421 81.059 C 421 79.798, 419.438 78.895, 418.639 79.694 M 641.195 81.500 C 641.215 83.150, 641.439 83.704, 641.693 82.731 C 641.947 81.758, 641.930 80.408, 641.656 79.731 C 641.382 79.054, 641.175 79.850, 641.195 81.500 M 651.694 79.639 C 650.895 80.438, 651.798 82, 653.059 82 C 653.577 82, 654 81.325, 654 80.500 C 654 78.954, 652.820 78.513, 651.694 79.639 M 492.275 82 C 492.358 83.100, 492.977 84, 493.651 84 C 494.324 84, 494.808 83.100, 494.725 82 C 494.642 80.900, 494.023 80, 493.349 80 C 492.676 80, 492.192 80.900, 492.275 82 M 582 82 C 582 83.100, 582.450 84, 583 84 C 583.550 84, 584 83.100, 584 82 C 584 80.900, 583.550 80, 583 80 C 582.450 80, 582 80.900, 582 82 M 585 81.662 C 585 83.422, 588.246 84.763, 588.761 83.216 C 589.043 82.371, 589.654 82.389, 591.102 83.286 C 592.694 84.273, 593.240 84.219, 594.015 83 C 594.649 82.003, 594.975 81.919, 594.985 82.750 C 594.993 83.438, 595.450 84, 596 84 C 596.550 84, 597 83.339, 597 82.531 C 597 81.602, 597.582 81.286, 598.584 81.671 C 599.859 82.160, 599.908 82.443, 598.834 83.124 C 597.871 83.734, 598.108 83.974, 599.688 83.985 C 601.245 83.996, 601.833 83.438, 601.729 82.051 C 601.596 80.281, 600.822 80.109, 593.291 80.181 C 586.885 80.242, 585 80.579, 585 81.662 M 648.446 81.087 C 648.077 81.685, 648.179 82.579, 648.673 83.073 C 649.204 83.604, 649.571 83.160, 649.571 81.986 C 649.571 79.713, 649.386 79.566, 648.446 81.087 M 771.015 82.250 C 771.028 84.069, 771.216 84.213, 772 83 C 773.253 81.061, 773.253 80, 772 80 C 771.450 80, 771.007 81.013, 771.015 82.250 M 466 82 C 466 82.550, 466.450 83, 467 83 C 467.550 83, 468 82.550, 468 82 C 468 81.450, 467.550 81, 467 81 C 466.450 81, 466 81.450, 466 82 M 471 82 C 471 82.550, 471.450 83, 472 83 C 472.550 83, 473 82.550, 473 82 C 473 81.450, 472.550 81, 472 81 C 471.450 81, 471 81.450, 471 82 M 538 82 C 538 82.550, 538.675 83, 539.500 83 C 540.325 83, 541 82.550, 541 82 C 541 81.450, 540.325 81, 539.500 81 C 538.675 81, 538 81.450, 538 82 M 631 82 C 631 82.550, 631.450 83, 632 83 C 632.550 83, 633 82.550, 633 82 C 633 81.450, 632.550 81, 632 81 C 631.450 81, 631 81.450, 631 82 M 645.211 82.538 C 644.145 83.746, 644.189 84, 645.461 84 C 646.307 84, 647 83.325, 647 82.500 C 647 80.676, 646.850 80.680, 645.211 82.538 M 547 83 C 545.718 83.828, 545.754 83.972, 547.250 83.985 C 548.212 83.993, 549 83.550, 549 83 C 549 81.780, 548.887 81.780, 547 83 M 182 87.389 C 182 89.751, 182.367 90, 185.845 90 C 188.384 90, 190.288 89.339, 191.451 88.054 C 193.136 86.193, 193.132 86.112, 191.356 86.198 C 190.335 86.247, 187.813 85.948, 185.750 85.533 C 182.181 84.814, 182 84.904, 182 87.389 M 365.619 250.034 C 359.030 252.007, 355 258.287, 355 266.582 C 355 273.592, 357.594 278.242, 363.061 281.031 C 368.220 283.663, 376.416 283.654, 380.750 281.011 C 384.540 278.700, 384.709 277.952, 381.996 275.496 C 380.326 273.985, 379.568 273.876, 377.449 274.841 C 368.648 278.851, 360.913 271.854, 363.955 262.635 C 365.924 256.671, 373.092 253.963, 377.161 257.646 C 378.864 259.187, 379.147 259.125, 381.579 256.694 C 384.571 253.701, 384.110 252.362, 379.410 250.398 C 375.718 248.856, 370.055 248.706, 365.619 250.034 M 396.619 250.034 C 390.196 251.958, 386 258.286, 386 266.049 C 386 273.081, 388.332 277.524, 393.663 280.648 C 397.428 282.855, 398.973 283.171, 404.326 282.830 C 411.932 282.346, 416.387 279.561, 419.095 273.599 C 425.717 259.016, 412.590 245.253, 396.619 250.034 M 686.059 251.177 C 679.301 254.711, 677.500 257.831, 677.500 266 C 677.500 273.648, 679.056 276.711, 684.990 280.750 C 687.496 282.456, 689.723 283, 694.198 283 C 700.818 283, 704.128 281.621, 708.469 277.056 C 711.041 274.351, 711.488 273.033, 711.806 267.216 C 712.121 261.457, 711.840 260.014, 709.837 257.092 C 706.178 251.756, 702.944 249.891, 696.403 249.346 C 691.547 248.942, 689.712 249.267, 686.059 251.177 M 765.001 250.123 C 758.666 252.649, 755 258.580, 755 266.302 C 755 272.536, 757.487 277.064, 762.922 280.726 C 767.304 283.679, 776.856 283.890, 782.016 281.148 C 794.148 274.701, 793.086 255.855, 780.282 250.377 C 776.584 248.795, 768.662 248.663, 765.001 250.123 M 195.952 250.750 C 195.926 251.162, 197.838 258.361, 200.202 266.746 L 204.500 281.991 208.578 281.996 L 212.657 282 215.489 272.040 C 217.046 266.562, 218.648 262.283, 219.049 262.531 C 219.450 262.778, 220.079 264.223, 220.446 265.741 C 220.814 267.258, 222.015 271.562, 223.116 275.305 L 225.117 282.109 229.242 281.805 L 233.366 281.500 237.139 268.500 C 242.952 248.472, 242.871 250, 238.118 250 C 233.661 250, 234.051 249.322, 230.917 262.500 C 230.263 265.250, 229.408 267.859, 229.016 268.298 C 228.624 268.737, 227.184 264.912, 225.816 259.798 L 223.327 250.500 218.987 250.500 L 214.647 250.500 212.149 260.201 C 210.776 265.537, 209.356 269.720, 208.995 269.497 C 208.634 269.274, 207.777 266.483, 207.091 263.296 C 204.141 249.599, 204.356 250, 199.961 250 C 197.783 250, 195.978 250.338, 195.952 250.750 M 245 266 L 245 282 256.500 282 L 268 282 268 279.044 L 268 276.088 260.750 275.794 L 253.500 275.500 253.187 272.250 L 252.873 269 259.468 269 C 264.651 269, 266.197 268.650, 266.691 267.364 C 267.938 264.112, 265.604 262.515, 259.146 262.202 C 253.403 261.924, 253 261.747, 253 259.498 C 253 257.223, 253.368 257.075, 259.750 256.796 L 266.500 256.500 266.813 253.250 L 267.127 250 256.063 250 L 245 250 245 266 M 274 256 L 274 262 277 262 L 280 262 280 256 L 280 250 277 250 L 274 250 274 256 M 287 266 L 287 282 291 282 L 295 282 295 275.417 C 295 271.155, 295.380 268.960, 296.078 269.193 C 296.671 269.390, 298.583 272.240, 300.328 275.526 C 303.482 281.466, 303.528 281.502, 308.384 281.810 L 313.269 282.121 310.982 278.310 C 305.012 268.362, 305.197 269.125, 308.216 266.892 C 311.371 264.558, 312.745 259.260, 311.028 256.052 C 308.731 251.760, 304.159 250.008, 295.250 250.004 L 287 250 287 266 M 317 266 L 317 282 328.500 282 L 340 282 340 279 L 340 276 332.500 276 L 325 276 325 272.500 L 325 269 331.563 269 L 338.127 269 337.813 265.750 C 337.500 262.500, 337.500 262.500, 331.250 262.202 C 325.363 261.922, 325 261.762, 325 259.452 C 325 257.610, 325.560 256.971, 327.250 256.885 C 328.488 256.821, 329.950 256.665, 330.500 256.537 C 331.050 256.409, 333.188 256.236, 335.250 256.152 C 338.716 256.012, 339 255.773, 339 253 L 339 250 328 250 L 317 250 317 266 M 426 265.950 L 426 282 429.500 282 L 433 282 433 271.800 C 433 265.938, 433.371 262.004, 433.872 262.550 C 434.352 263.072, 436.222 267.686, 438.027 272.802 C 441.248 281.926, 441.368 282.098, 444.313 281.802 C 447.148 281.517, 447.517 280.941, 450.908 271.500 L 454.500 261.500 454.785 271.750 L 455.070 282 459.035 282 L 463 282 463 266 L 463 250 457.213 250 L 451.425 250 448.122 260.076 C 446.306 265.619, 444.613 269.946, 444.361 269.694 C 444.108 269.442, 442.399 265.020, 440.562 259.868 L 437.221 250.500 431.611 250.200 L 426 249.900 426 265.950 M 469 266 L 469 282 473 282 L 477 282 477.071 272.250 L 477.141 262.500 478.990 266.658 C 480.008 268.945, 481.633 273.332, 482.602 276.408 C 484.243 281.613, 484.579 282, 487.461 282 C 490.471 282, 490.650 281.736, 493.902 272.482 C 495.742 267.248, 497.642 262.721, 498.124 262.423 C 498.606 262.126, 499 266.409, 499 271.941 L 499 282 502.500 282 L 506 282 506 265.950 L 506 249.900 500.310 250.200 L 494.621 250.500 491.600 259.750 C 489.938 264.837, 488.277 269, 487.907 269 C 487.538 269, 485.733 264.725, 483.896 259.500 L 480.557 250 474.778 250 L 469 250 469 266 M 513 266 L 513 282 517 282 L 521 282 521 266 L 521 250 517 250 L 513 250 513 266 M 524 253 C 524 256.112, 524.892 256.514, 530.750 256.039 C 532.978 255.859, 533 255.985, 533 268.928 L 533 282 536.970 282 L 540.940 282 541.220 269.250 L 541.500 256.500 550.500 256.500 L 559.500 256.500 559.780 269.250 L 560.060 282 564.030 282 L 568 282 568 269 L 568 256 572.500 256 C 576.833 256, 577 255.889, 577 253 L 577 250 550.500 250 L 524 250 524 253 M 580 266 L 580 282 591.500 282 L 603 282 603 279 L 603 276 595.500 276 L 588 276 588 272.500 L 588 269 594.500 269 L 601 269 601 266.048 C 601 263.125, 600.938 263.092, 594.750 262.798 C 588.500 262.500, 588.500 262.500, 588.187 259.250 L 587.873 256 594.937 256 L 602 256 602 253 L 602 250 591 250 L 580 250 580 266 M 608 266 L 608 282 616.532 282 C 626.239 282, 630.115 280.718, 634.500 276.057 C 637.234 273.152, 637.500 272.258, 637.500 265.990 C 637.500 259.558, 637.285 258.889, 634.190 255.696 C 630.058 251.433, 625.390 250, 615.634 250 L 608 250 608 266 M 650.667 250.667 C 650.300 251.033, 650 252.383, 650 253.667 C 650 255.765, 650.452 256, 654.500 256 L 659 256 659 269 L 659 282 663.642 282 L 668.285 282 667.591 271.031 C 666.767 258.013, 667.429 256, 672.535 256 C 675.718 256, 676 255.756, 676 253 L 676 250 663.667 250 C 656.883 250, 651.033 250.300, 650.667 250.667 M 724.552 252.750 C 725.532 254.262, 728.284 258.420, 730.667 261.989 C 734.711 268.045, 735 268.930, 735 275.239 L 735 282 739.250 281.993 L 743.500 281.986 743.801 274.879 C 744.090 268.055, 744.339 267.418, 750.077 258.886 L 756.052 250 751.034 250 L 746.017 250 742.855 255.603 L 739.693 261.206 736.266 255.603 L 732.839 250 727.805 250 L 722.770 250 724.552 252.750 M 794.734 250.750 C 794.523 251.162, 794.611 257.203, 794.929 264.173 C 795.457 275.745, 795.715 277.068, 797.901 279.394 C 804.306 286.212, 817.453 284.826, 821.551 276.901 C 822.581 274.909, 823 270.616, 823 262.050 L 823 250 818.500 250 L 814 250 814 261.345 C 814 271.066, 813.738 272.927, 812.171 274.345 C 809.741 276.544, 807.433 276.433, 805 274 C 803.242 272.242, 803 270.667, 803 261 L 803 250 799.059 250 C 796.891 250, 794.945 250.338, 794.734 250.750 M 295.524 256.810 C 295.236 257.098, 295 258.833, 295 260.667 C 295 263.686, 295.276 264, 297.929 264 C 300.683 264, 304 261.842, 304 260.051 C 304 258.122, 296.919 255.415, 295.524 256.810 M 398.750 257.080 C 395.844 258.773, 393.728 263.934, 394.355 267.798 C 395.186 272.924, 398.512 276, 403.222 276 C 408.670 276, 412 272.312, 412 266.277 C 412 258.711, 404.677 253.628, 398.750 257.080 M 616 266.004 L 616 276.263 620.038 275.722 C 627.749 274.687, 631.080 270.193, 629.493 262.966 C 628.685 259.291, 625.909 257.326, 620.250 256.423 L 616 255.744 616 266.004 M 688.800 259.046 C 686.010 261.837, 685.796 262.523, 686.248 267.232 C 686.823 273.218, 689.406 276, 694.388 276 C 698.632 276, 701.724 273.658, 702.846 269.595 C 704.162 264.829, 703.210 261.355, 699.805 258.489 C 695.844 255.157, 692.522 255.325, 688.800 259.046 M 769.357 256.992 C 762.609 259.715, 762.132 271.917, 768.657 274.890 C 775.297 277.915, 781 273.935, 781 266.277 C 781 262.713, 780.428 261.274, 778.077 258.923 C 775.075 255.921, 773.096 255.483, 769.357 256.992 M 200.333 505.517 C 200.333 507.294, 201.669 507.493, 202.233 505.801 C 202.479 505.063, 202.892 505.276, 203.305 506.352 C 203.675 507.316, 203.622 507.885, 203.189 507.617 C 202.755 507.349, 201.788 508.113, 201.039 509.315 C 199.798 511.308, 199.825 511.379, 201.339 510.128 C 203.270 508.532, 203.593 509.961, 201.750 511.947 C 200.947 512.812, 200.916 513.060, 201.665 512.640 C 202.305 512.281, 203.018 512.553, 203.248 513.244 C 203.583 514.248, 266.225 514.550, 515.256 514.748 C 686.630 514.885, 827.555 514.724, 828.422 514.391 C 830.258 513.687, 830.472 510.750, 828.900 507.814 C 828.101 506.319, 828.101 505.944, 828.900 506.438 C 829.520 506.822, 830 506.438, 830 505.559 C 830 504.156, 818.349 504, 713.500 504 C 611.855 504, 597 504.187, 597 505.465 C 597 506.270, 596.130 507.395, 595.066 507.965 C 593.778 508.654, 566.014 509, 512 509 C 457.986 509, 430.222 508.654, 428.934 507.965 C 427.870 507.395, 427 506.267, 427 505.457 C 427 504.168, 412.829 503.987, 313.667 504.008 C 214.169 504.030, 200.333 504.214, 200.333 505.517 M 462 505.277 C 475.506 506.553, 547.284 506.544, 561 505.264 C 568.988 504.519, 557.143 504.285, 511.500 504.285 C 465.431 504.285, 453.938 504.515, 462 505.277 M 830.446 507.087 C 830.077 507.685, 830.252 508.652, 830.836 509.236 C 831.585 509.985, 831.850 509.665, 831.736 508.149 C 831.552 505.703, 831.386 505.566, 830.446 507.087 M 831.079 512.583 C 831.127 513.748, 831.364 513.985, 831.683 513.188 C 831.972 512.466, 831.936 511.603, 831.604 511.271 C 831.272 510.939, 831.036 511.529, 831.079 512.583" stroke="none" fill="black" fill-rule="evenodd"/>
</svg>